# xmcd
#
# Track frame offsets:
# 150
# 12701
# 22521
# 38360
# 58229
# 74177
# 89367
# 104579
# 117007
# 132691
# 145650
# 159553
# 174541
# 186013
# 197669
# 209954
# 222188
# 235131
# 245623
# 266693
# 284373
# 294779
# 305908
# 325596
# 341170
#
# Disc length: 4766 seconds
#
# Revision: 0
# Processed by: cddbd v1.4PL0 Copyright (c) Steve Scherf et al.
# Submitted via: Axialis_AX_CDPlayer 2.6
#
DISCID=86129c19
DTITLE=Nelson, Willie - A Portrait, Vol. 3
DYEAR=1900
DGENRE=
TTITLE0=I'm moving on
TTITLE1=In the jailhouse now
TTITLE2=It's not supposed to be that way
TTITLE3=Last thing I needed first thing this morning
TTITLE4=Let it be me
TTITLE5=Little things
TTITLE6=Living in the promiseland
TTITLE7=Look what thoughts will do
TTITLE8=Mammas don't let your babies
TTITLE9=Midnight rider
TTITLE10=My heroes have always been cowboys
TTITLE11=Nothing I can do about it now
TTITLE12=Old Fords and natural stone
TTITLE13=On the road again
TTITLE14=Permanently lonely
TTITLE15=Railroad lady
TTITLE16=Remember me
TTITLE17=Rosetta
TTITLE18=September song
TTITLE19=Stardust
TTITLE20=Staring each other down
TTITLE21=Time of the preacher
TTITLE22=Last thing I needed first
TTITLE23=Stay a little longer
TTITLE24=To all the girls I've loved before
EXTD=compiled by itfischer@ziplip.com
EXTT0=
EXTT1=
EXTT2=
EXTT3=
EXTT4=
EXTT5=
EXTT6=
EXTT7=
EXTT8=
EXTT9=
EXTT10=
EXTT11=
EXTT12=
EXTT13=
EXTT14=
EXTT15=
EXTT16=
EXTT17=
EXTT18=
EXTT19=
EXTT20=
EXTT21=
EXTT22=
EXTT23=
EXTT24=
PLAYORDER=
